# xmcd
#
# Track frame offsets:
#	150
#	17070
#	29458
#	41932
#	53473
#	67986
#	79759
#	92408
#	105274
#	118687
#	134062
#	146924
#	160498
#	173902
#	188757
#	201401
#	217458
#
# Disc length: 4061 seconds
#
# Revision: 0
# Processed by: cddbd v1.5.2PL0 Copyright (c) Steve Scherf et al.
# Submitted via: EasyCDDAExtractor 16.0.6.1
#
DISCID=fb0fdb11
DTITLE=Ζαγοραίος Σπύρος - Πενήντα χρόνια-Σ. Ζαγοραίος
DYEAR=2010
DGENRE=Ποικίλη
TTITLE0=Ζαγοραίος Σπύρος - Θα πεθάνω γλυκειά μου αγάπη [Δημ. Γκούτης]
TTITLE1=Ζαγοραίος Σπύρος - Έγιναν γκρίζα τα μαλλιά μου [Σ. Ζαγοραίος-Κ. Βίρβος
TTITLE1=]
TTITLE2=Ζαγοραίος Σπύρος - Ο αλήτης [Σ. Ζαγοραίος]
TTITLE3=Ζαγοραίος Σπύρος - Προσευχή [Σ. Ζαγοραίος-Δημ. Γκούτης]
TTITLE4=Ζαγοραίος Σπύρος - Οι γαρυφαλλιές [Μιχ. Δασκαλάκης]
TTITLE5=Ζαγοραίος Σπύρος - Πάρτε κύριε λαχεία [Δημ. Γκούτης]
TTITLE6=Ζαγοραίος Σπύρος-Γιαννακάκη Έλενα - Κατηγόρα με [Σ. Ζαγοραίος-Έλενα Γι
TTITLE6=αννακάκη]
TTITLE7=Ζαγοραίος Σπύρος - Ένας μάγκας στο Βοτανικό (Ε ντε λα μαγκέν)[Σ. Περισ
TTITLE7=τέρης-Σ. Ζαγοραίος]
TTITLE8=Ζαγοραίος Σπύρος - Όλες είσαστε ίδιες [Γ. Μανισαλής-Κ. Ψυχογιός]
TTITLE9=Ζαγοραίος Σπύρος - Ένας αλήτης πέθανε [Κ. Καπλάνης-Κ. Μάνεσης]
TTITLE10=Ζαγοραίος Σπύρος-Ζαγοραίου Ζωή - Αυτά μού άφησες, αυτά μού μείνανε [Σ
TTITLE10=Ζαγοραίος-Μαρία Νιφόρου]
TTITLE11=Ζαγοραίος Σπύρος - Τα ραδίκια [παραδ., διασκ. Αργ. Βαμβακάρης-Σ. Περι
TTITLE11=στέρης]
TTITLE12=Ζαγοραίος Σπύρος - Ο ανάπηρος [Δημ. Γκούτης]
TTITLE13=Ζαγοραίος Σπύρος - Η κούκλα (Ένας κούκλος κ μιά κούκλα)[Δημ. Γκούτης]
TTITLE14=Ζαγοραίος Σπύρος - Πάτα, πάτα [Σταμ. Κραουνάκης]
TTITLE15=Ζαγοραίος Σπύρος-Βολουδάκη Μαρίνα - Άναψε το τσιγάρο [Γερ. Κλουβάτος-
TTITLE15=Χαρ. Βασιλειάδης]
TTITLE16=Ζαγοραίος Σπύρος - Ηχητικό ντοκουμέντο [συν. Σ. Ζαγοραίου στον Κ. Μπα
TTITLE16=λαχούτη, 092001]
EXTD=
EXTT0=
EXTT1=
EXTT2=
EXTT3=
EXTT4=
EXTT5=
EXTT6=
EXTT7=
EXTT8=
EXTT9=
EXTT10=
EXTT11=
EXTT12=
EXTT13=
EXTT14=
EXTT15=
EXTT16=
PLAYORDER=
